<?xml version="1.0" encoding="UTF-8"?>
<svg version="1.1" xmlns="http://www.w3.org/2000/svg" width="236" height="172">
<path d="M0 0 C77.88 0 155.76 0 236 0 C236 56.76 236 113.52 236 172 C158.12 172 80.24 172 0 172 C0 115.24 0 58.48 0 0 Z " fill="#1A0F15" transform="translate(0,0)"/>
<path d="M0 0 C3.20217082 1.718238 6.2304891 3.64078701 9 6 C9 6.66 9 7.32 9 8 C10.26714844 7.855625 11.53429687 7.71125 12.83984375 7.5625 C14.53903425 7.37474414 16.23825463 7.18725861 17.9375 7 C18.76830078 6.90460937 19.59910156 6.80921875 20.45507812 6.7109375 C28.5023095 5.83419634 35.8960459 5.43684836 43.8125 7.4375 C45.43091797 7.83775391 45.43091797 7.83775391 47.08203125 8.24609375 C48.80387569 8.69096119 50.51780177 9.17443677 52.203125 9.7421875 C52.79609375 9.82726563 53.3890625 9.91234375 54 10 C55.52818691 8.79695924 57.05207666 7.58412257 58.49609375 6.28125 C62.31276372 3.02964546 66.13266223 2.67551082 71 3 C71.99 3.495 71.99 3.495 73 4 C73 4.99 73 5.98 73 7 C71.824375 6.9175 70.64875 6.835 69.4375 6.75 C64.60391983 6.73279865 61.9356983 8.2691073 58 11 C57.67 11.66 57.34 12.32 57 13 C57.72703125 13.26039062 58.4540625 13.52078125 59.203125 13.7890625 C70.74783847 18.78747196 79.06570675 29.8445266 83.75683594 41.19116211 C84.89842703 44.10844626 85.96941631 47.04161859 87 50 C87.87011719 50.03867188 87.87011719 50.03867188 88.7578125 50.078125 C95.25848493 50.55012102 99.03990589 52.2372455 103.875 56.75 C106.07585168 61.15170336 105.3151538 65.63433354 104.25 70.25 C102.89523354 73.23048622 101.53287488 74.94203916 99 77 C98.34 77 97.68 77 97 77 C96.67 77.99 96.34 78.98 96 80 C89.25 80.125 89.25 80.125 87 79 C86.814375 80.19625 86.62875 81.3925 86.4375 82.625 C82.89694964 98.28701792 72.22678519 113.16798934 59 122 C52.19318182 126 52.19318182 126 49 126 C49 130.29 49 134.58 49 139 C44.71 139 40.42 139 36 139 C36 134.71 36 130.42 36 126 C35.01 126.495 35.01 126.495 34 127 C31.95944995 127.07065617 29.91665743 127.08421976 27.875 127.0625 C24.966875 127.0315625 24.966875 127.0315625 22 127 C22 130.96 22 134.92 22 139 C17.71 139 13.42 139 9 139 C8.67 134.71 8.34 130.42 8 126 C6.515 125.443125 6.515 125.443125 5 124.875 C0.46986682 122.93482175 -3.19296982 120.08831981 -7 117 C-7.97582031 116.24074219 -8.95164063 115.48148437 -9.95703125 114.69921875 C-19.32976329 106.84913271 -25.94747838 93.72445805 -29 82 C-29 81.01 -29 80.02 -29 79 C-29.99 79.495 -29.99 79.495 -31 80 C-34.00704653 80.34507091 -36.09644905 80.57512644 -39 80 C-44.14706166 75.42483408 -46.4725556 69.69211078 -47.4375 62.9375 C-46.81401694 58.75125659 -45.46979981 56.47107 -43 53 C-38.77967128 50.22664113 -33.87898607 50.80866721 -29 51 C-28.85304688 50.40574219 -28.70609375 49.81148437 -28.5546875 49.19921875 C-24.00299063 32.37886767 -14.22129035 21.15171806 0.63671875 12.45703125 C2.7441585 11.27593864 4.86037862 10.12149237 7 9 C1.67483383 4.58124509 -2.09415557 3.17225462 -9 3 C-8.67 2.01 -8.34 1.02 -8 0 C-4.60651463 -1.13116179 -3.38373646 -0.96678184 0 0 Z " fill="#BC413B" transform="translate(91,16)"/>
<path d="M0 0 C2.5625 2.0625 2.5625 2.0625 4 5 C3.94021398 8.46758942 3.60965977 10.88826749 1.9375 13.9375 C-1.27905997 15.70141999 -4.49385409 15.73924763 -8 15 C-10.5625 12.9375 -10.5625 12.9375 -12 10 C-11.94021398 6.53241058 -11.60965977 4.11173251 -9.9375 1.0625 C-6.72094003 -0.70141999 -3.50614591 -0.73924763 0 0 Z " fill="#0D0D13" transform="translate(144,48)"/>
<path d="M0 0 C2.5625 2.0625 2.5625 2.0625 4 5 C3.94021398 8.46758942 3.60965977 10.88826749 1.9375 13.9375 C-1.27905997 15.70141999 -4.49385409 15.73924763 -8 15 C-10.5625 12.9375 -10.5625 12.9375 -12 10 C-11.94021398 6.53241058 -11.60965977 4.11173251 -9.9375 1.0625 C-6.72094003 -0.70141999 -3.50614591 -0.73924763 0 0 Z " fill="#0D0E14" transform="translate(104,48)"/>
<path d="M0 0 C4.07774827 2.03887413 6.79892358 4.79892358 10 8 C10.99 8.33 11.98 8.66 13 9 C13 10.32 13 11.64 13 13 C8.72655357 12.52517262 6.86471775 10.00795363 4 7 C0.26105457 3.26105457 -3.95641641 3.31252975 -9 3 C-8.67 2.01 -8.34 1.02 -8 0 C-4.60651463 -1.13116179 -3.38373646 -0.96678184 0 0 Z " fill="#CE504C" transform="translate(91,16)"/>
<path d="M0 0 C0 0.99 0 1.98 0 3 C-1.134375 2.87625 -2.26875 2.7525 -3.4375 2.625 C-9.04251589 2.58503554 -12.76657895 5.60974995 -17 9 C-17.66 9.66 -18.32 10.32 -19 11 C-20.32 11 -21.64 11 -23 11 C-20.62638133 5.3763496 -15.64196864 2.38388834 -10.375 -0.375 C-6.76160754 -1.32589275 -3.39888769 -1.69944385 0 0 Z " fill="#D5524D" transform="translate(164,20)"/>
<path d="M0 0 C2.4375 0.375 2.4375 0.375 5 1 C5.33 1.66 5.66 2.32 6 3 C6.99 3.33 7.98 3.66 9 4 C9 5.32 9 6.64 9 8 C4.75153925 7.52794881 2.73180712 5.11122478 0 2 C0 1.34 0 0.68 0 0 Z " fill="#DE5650" transform="translate(95,21)"/>
<path d="M0 0 C1.65 0 3.3 0 5 0 C4.67 1.65 4.34 3.3 4 5 C2.68 4.67 1.36 4.34 0 4 C0 2.68 0 1.36 0 0 Z " fill="#5AC1B0" transform="translate(139,52)"/>
<path d="M0 0 C1.65 0 3.3 0 5 0 C4.67 1.65 4.34 3.3 4 5 C2.68 4.67 1.36 4.34 0 4 C0 2.68 0 1.36 0 0 Z " fill="#5AC1B0" transform="translate(99,52)"/>
<path d="M0 0 C-0.33 1.32 -0.66 2.64 -1 4 C-2.65 4.33 -4.3 4.66 -6 5 C-3.74193548 0 -3.74193548 0 0 0 Z " fill="#E0554F" transform="translate(147,26)"/>
<path d="M0 0 C-0.99 0.495 -0.99 0.495 -2 1 C-1.34 1.66 -0.68 2.32 0 3 C-2.31 3 -4.62 3 -7 3 C-6.67 2.01 -6.34 1.02 -6 0 C-3 -1 -3 -1 0 0 Z " fill="#A6423F" transform="translate(89,16)"/>
<path d="M0 0 C5.75 -0.125 5.75 -0.125 8 1 C8 1.99 8 2.98 8 4 C4.31245243 3.50168276 2.39509338 2.89932357 0 0 Z " fill="#B44744" transform="translate(156,19)"/>
</svg>
